<svg width="196" height="99" viewBox="0 0 196 99" fill="none" xmlns="http://www.w3.org/2000/svg">
<g clip-path="url(#clip0_2329_399)">
<path d="M54.4253 99.0819C54.3272 99.0577 54.2683 99.0156 54.2073 99.0121C53.6242 98.9788 53.0379 98.9786 52.4579 98.9177C51.2304 98.7888 50.0027 98.6535 48.7817 98.475C47.6255 98.306 46.485 98.0456 45.3709 97.6854C43.9518 97.2267 42.586 96.6594 41.4447 95.6601C40.6512 94.9654 40.1083 94.1203 39.9457 93.0606C39.9162 92.8686 39.8425 92.6595 40.0287 92.4491C40.3716 92.5997 40.7148 92.7532 41.0601 92.9014C42.2619 93.4174 43.5007 93.8238 44.7604 94.173C46.1106 94.5472 47.4804 94.8294 48.8625 95.0437C49.7063 95.1744 50.5618 95.2279 51.4115 95.3222C52.6022 95.4544 53.7976 95.4939 54.9937 95.4795C55.9315 95.4682 56.8715 95.4511 57.8058 95.3773C60.3673 95.1749 62.8999 94.7773 65.3907 94.1359C65.6961 94.0572 65.9623 94.0812 66.257 94.2068C67.1744 94.5978 68.1281 94.8356 69.131 94.9215C70.3541 95.0261 71.5074 94.8189 72.6249 94.3427C73.5544 93.9465 74.3465 93.3502 75.0263 92.6124C75.3034 92.3115 75.6126 92.1043 75.9894 91.9594C78.9731 90.8119 81.9625 89.682 84.9885 88.6488C87.8211 87.6816 90.669 86.7702 93.5855 86.0924C94.9755 85.7694 96.376 85.4802 97.8172 85.5557C98.1258 85.5719 98.4339 85.6384 98.7362 85.7082C98.8218 85.7279 98.9369 85.8359 98.9449 85.9131C98.9524 85.985 98.8515 86.0992 98.7704 86.1444C98.0805 86.5285 97.391 86.9145 96.6884 87.2745C94.9183 88.1817 93.1549 89.1036 91.3637 89.9673C89.5007 90.8656 87.6113 91.7093 85.7279 92.5646C83.4224 93.6116 81.0698 94.5441 78.6946 95.4186C75.9101 96.4438 73.0832 97.3344 70.1878 97.9884C68.9569 98.2664 67.7139 98.4943 66.4532 98.6034C65.5478 98.6816 64.6437 98.7757 63.7374 98.842C62.7088 98.9172 61.6784 98.9692 60.6258 99.0566C58.5564 99.0819 56.51 99.0819 54.4253 99.0819Z" fill="#83C5B6"/>
<path d="M196.121 46.3474C196.098 46.4604 196.06 46.534 196.055 46.6097C195.95 48.2681 195.218 49.6102 193.979 50.6808C192.93 51.5869 191.681 52.0576 190.33 52.2971C189.385 52.4646 188.434 52.4381 187.483 52.4407C187.279 52.4412 187.076 52.4408 186.816 52.4408C186.813 52.979 186.809 53.4924 186.807 54.0058C186.806 54.5111 186.807 55.0163 186.807 55.5216C186.807 56.0405 186.807 56.5594 186.807 57.0783C186.807 57.5836 186.807 58.0889 186.807 58.5941C186.807 59.113 186.807 59.6319 186.807 60.1509C186.807 60.6539 186.807 61.1568 186.807 61.702C185.637 61.743 184.499 61.7094 183.369 61.7225C183.273 61.4129 183.234 39.6524 183.324 38.8729C183.419 38.8613 183.522 38.8376 183.625 38.8378C185.355 38.842 187.087 38.818 188.816 38.8682C189.762 38.8956 190.712 38.984 191.633 39.25C193.232 39.7116 194.416 40.7006 195.259 42.1157C195.747 42.9352 196.04 43.8207 196.097 44.8056C196.121 45.3221 196.121 45.8156 196.121 46.3474ZM192.16 43.5185C191.61 42.843 190.877 42.483 190.049 42.2865C189.02 42.0425 187.976 42.0255 186.928 42.065C186.893 42.0663 186.859 42.1016 186.83 42.1184C186.754 43.0027 186.789 48.8549 186.879 49.1819C187.387 49.1819 187.904 49.173 188.42 49.1842C189.052 49.1979 189.666 49.1056 190.272 48.9368C191.645 48.5545 192.537 47.7119 192.736 46.2613C192.866 45.3108 192.796 44.3792 192.16 43.5185Z" fill="#F4A366"/>
<path d="M0.0820312 73.3049C0.138054 73.1178 0.207295 72.9726 0.248117 72.8198C0.855279 70.5467 2.29738 69.1262 4.60646 68.6988C7.41695 68.1786 10.1433 69.9977 10.7638 72.8354C11.3685 75.6004 9.85988 78.2492 7.25581 79.1135C5.2753 79.7708 3.44989 79.396 1.8682 77.9831C1.02709 77.2317 0.512125 76.2958 0.252533 75.2072C0.217974 75.0622 0.17181 74.9201 0.106526 74.7592C0.082032 74.2755 0.082032 73.8094 0.0820312 73.3049Z" fill="#F4A367"/>
<path d="M28.0964 0.0820313C28.303 0.11669 28.4731 0.14575 28.6403 0.186857C30.8056 0.7193 32.2606 2.01563 32.8131 4.2068C33.5497 7.1282 31.7761 10.1685 28.6291 10.7932C26.2713 11.2613 23.9966 10.1722 22.8247 8.02144C22.4366 7.30917 22.2417 6.53523 22.2313 5.71109C22.221 4.89665 22.3077 4.10979 22.6435 3.35901C23.2437 2.01681 24.2022 1.03537 25.5733 0.500775C26.0359 0.320422 26.5409 0.249357 27.0488 0.105188C27.4002 0.0820311 27.7293 0.0820311 28.0964 0.0820313Z" fill="#82C5B6"/>
<path d="M34.502 91.3064C33.5566 91.3337 32.7217 91.0357 31.8972 90.7134C30.1257 90.0209 28.4967 89.0545 26.8931 88.0453C23.8225 86.1129 20.8998 83.9706 18.0544 81.7231C16.2384 80.2887 14.452 78.8166 12.6538 77.3596C12.3378 77.1036 12.3254 77.0725 12.4748 76.666C12.796 75.7913 13.0178 74.8905 13.0683 73.9627C13.1541 72.385 12.7263 70.9419 11.8114 69.6505C11.0557 68.584 10.0791 67.7654 8.92462 67.1722C8.57078 66.9904 8.44589 66.7658 8.41592 66.3833C8.33951 65.4079 8.21061 64.4368 8.11316 63.4629C8.06576 62.9891 8.03679 62.5134 8.00814 62.038C7.94921 61.0601 7.89273 60.0821 7.84181 59.1038C7.80856 58.4649 7.7868 57.8255 7.76 57.1863C7.73949 56.697 7.70541 56.2078 7.70317 55.7184C7.70144 55.3385 7.74941 54.9586 7.75775 54.5783C7.77211 53.9233 7.74789 53.2666 7.78537 52.6132C7.83594 51.7317 7.90064 50.8489 8.01217 49.9734C8.14612 48.922 8.30629 47.872 8.50869 46.8318C8.75682 45.5566 9.16229 44.3265 9.76419 43.1701C10.2161 42.3018 10.7758 41.5139 11.606 40.9665C11.8748 40.7893 12.1845 40.6688 12.486 40.5491C12.6289 40.4924 12.7967 40.4988 12.9391 40.4785C13.0821 40.6992 13.0093 40.8877 12.9725 41.0693C12.6916 42.4559 12.3804 43.837 12.1307 45.2291C11.9652 46.1516 11.8887 47.09 11.7671 48.0205C11.4836 50.1905 11.499 52.3722 11.5293 54.5526C11.5468 55.8173 11.6838 57.0755 11.8384 58.3325C12.0515 60.0654 12.3856 61.7717 12.8215 63.4603C13.3987 65.6965 14.176 67.8596 15.1333 69.9611C16.6459 73.2814 18.5703 76.3405 20.8733 79.1651C21.7608 80.2536 22.6997 81.2932 23.6771 82.302C26.1808 84.8861 28.94 87.1564 31.9533 89.1141C32.866 89.7071 33.824 90.2299 34.7599 90.7872C34.9028 90.8723 35.1425 90.9055 35.0822 91.1405C35.0312 91.3399 34.8204 91.2918 34.6627 91.3057C34.6221 91.3093 34.581 91.3063 34.502 91.3064Z" fill="#F4A467"/>
<path d="M25.058 14.0466C25.3011 13.7686 25.5324 13.5185 25.7502 13.2571C25.9045 13.0719 26.071 13.0229 26.3188 13.0542C28.2328 13.2962 30.0569 13.0536 31.7117 11.9793C33.0681 11.0986 33.9351 9.83693 34.4998 8.34709C34.6347 7.9912 34.7362 7.62233 34.8461 7.25732C34.9459 6.92621 34.9618 6.90634 35.2839 6.88194C36.4071 6.79685 37.5301 6.70896 38.6537 6.62939C39.5066 6.56898 40.3599 6.51084 41.2138 6.46741C42.4484 6.40463 43.6846 6.37177 44.9185 6.2981C47.3821 6.15098 49.8474 6.20848 52.3108 6.25089C53.5693 6.27256 54.8252 6.44335 56.0825 6.54352C57.2922 6.63988 58.4767 6.87018 59.639 7.21483C60.2289 7.38975 60.7938 7.6234 61.2898 7.99959C61.3548 8.04887 61.4267 8.09137 61.483 8.14915C61.5738 8.24241 61.7262 8.32602 61.6446 8.48643C61.5626 8.64757 61.417 8.56147 61.2832 8.5496C60.4585 8.47646 59.6336 8.39531 58.8069 8.35621C57.7747 8.30739 56.7407 8.27423 55.7076 8.27608C54.7836 8.27774 53.8569 8.3019 52.9362 8.37593C50.2275 8.59372 47.5433 8.97497 44.8988 9.62322C42.2766 10.266 39.7289 11.1166 37.2621 12.2184C34.0103 13.6708 30.9988 15.5143 28.2319 17.7552C26.7586 18.9484 25.3772 20.2468 24.0975 21.6461C21.7811 24.1788 19.7849 26.9468 18.0948 29.9383C16.8317 32.1741 15.7542 34.4957 14.8134 36.8833C14.7884 36.9466 14.7679 37.0119 14.7397 37.0736C14.6646 37.2376 14.5303 37.2544 14.4045 37.1622C14.286 37.0753 14.1834 36.9588 14.0957 36.8392C13.6185 36.1888 13.4477 35.4385 13.4063 34.6496C13.3278 33.1517 13.6484 31.7213 14.1835 30.3382C14.5372 29.4243 14.9068 28.5118 15.343 27.6356C16.3535 25.6058 17.5572 23.6881 18.8852 21.8531C19.9072 20.4409 20.9504 19.0423 22.0309 17.6747C22.9589 16.5001 23.9531 15.3781 24.9176 14.2324C24.9613 14.1805 24.9996 14.124 25.058 14.0466Z" fill="#83C5B6"/>
<path d="M91.2756 39.3232C92.9558 39.9618 93.9854 41.1845 94.6254 42.7915C94.9269 43.5485 95.0919 44.3389 95.0925 45.1404C95.0934 46.4404 94.7289 47.6419 93.8794 48.6607C93.6975 48.8788 93.5075 49.09 93.2979 49.3312C93.4232 49.3921 93.5269 49.4462 93.6335 49.4936C95.3676 50.2656 96.455 51.595 96.9236 53.4183C97.346 55.0616 97.2118 56.669 96.3796 58.1682C95.5981 59.5761 94.4509 60.6029 92.9307 61.1476C92.349 61.356 91.7198 61.4548 91.1033 61.5357C90.4991 61.6151 89.8838 61.6255 89.2729 61.6359C87.5172 61.666 85.7611 61.6808 84.0052 61.7013C83.8845 61.7027 83.7637 61.7015 83.6521 61.7015C83.5577 61.3884 83.5204 39.5333 83.6086 38.7995C83.7189 38.7912 83.8365 38.7749 83.9541 38.7748C85.2626 38.7729 86.5722 38.7385 87.8791 38.7842C89.017 38.824 90.1595 38.9073 91.2756 39.3232ZM92.8377 57.1764C93.5417 56.4201 93.7991 55.5279 93.6546 54.5093C93.4975 53.4017 92.9124 52.5987 91.9334 52.0807C91.2714 51.7305 90.5457 51.6004 89.8117 51.5659C88.9693 51.5263 88.1242 51.5447 87.2803 51.5416C87.2046 51.5414 87.1289 51.5687 87.0611 51.5817C86.9779 52.3073 87.0115 58.0533 87.0992 58.3405C88.1308 58.3405 89.1678 58.3932 90.1968 58.3252C91.1717 58.2608 92.0931 57.964 92.8377 57.1764ZM90.5359 42.5683C90.3551 42.4753 90.1781 42.3739 89.9928 42.2909C89.475 42.0591 88.917 42.0119 88.3628 41.9757C87.9336 41.9477 87.501 41.9701 87.0548 41.9701C87.0548 44.1976 87.0548 46.372 87.0548 48.5733C87.9892 48.6034 88.8961 48.6432 89.7801 48.3636C90.6861 48.077 91.3004 47.4942 91.586 46.574C91.7667 45.9917 91.8058 45.398 91.753 44.7962C91.6745 43.9002 91.3381 43.1386 90.5359 42.5683Z" fill="#F4A366"/>
<path d="M172.783 43.6339C173.597 44.7298 174.213 45.8969 174.527 47.199C174.689 47.8701 174.769 48.5624 174.864 49.2481C174.912 49.5971 174.938 49.9535 174.929 50.3054C174.863 52.988 174.041 55.3735 172.208 57.3856C171.071 58.6341 169.768 59.6355 168.22 60.3029C167.318 60.6917 166.378 60.966 165.396 61.0635C164.843 61.1183 164.287 61.218 163.735 61.1994C162.526 61.1587 161.326 61.0274 160.171 60.6176C158.553 60.0435 157.147 59.1444 155.915 57.9502C155.065 57.1263 154.341 56.2136 153.82 55.1498C153.19 53.8629 152.828 52.5023 152.768 51.0653C152.753 50.7261 152.703 50.3872 152.707 50.0486C152.735 47.6316 153.406 45.4327 154.932 43.5265C155.982 42.2145 157.216 41.1143 158.703 40.3279C160.017 39.633 161.428 39.274 162.915 39.1543C164.344 39.0394 165.733 39.1744 167.103 39.5731C168.36 39.9389 169.498 40.5392 170.522 41.354C171.357 42.0184 172.095 42.7806 172.783 43.6339ZM165.229 58.0173C165.533 57.945 165.841 57.8876 166.14 57.7977C167.363 57.4288 168.405 56.7661 169.31 55.8601C170.204 54.965 170.879 53.9404 171.251 52.7325C171.586 51.6466 171.737 50.5398 171.611 49.3916C171.541 48.7505 171.44 48.122 171.244 47.5139C170.738 45.9477 169.79 44.6906 168.496 43.6911C167.811 43.1618 167.042 42.7919 166.221 42.5197C165.206 42.1834 164.16 42.1352 163.114 42.2109C161.034 42.3614 159.329 43.2747 157.941 44.8331C156.555 46.3894 155.974 48.2206 155.978 50.2707C155.979 50.5141 156.025 50.7569 156.04 51.0006C156.095 51.9239 156.337 52.8001 156.728 53.6318C157.441 55.1481 158.573 56.2835 159.998 57.1304C160.959 57.7012 162.001 58.0631 163.123 58.1021C163.8 58.1257 164.48 58.055 165.229 58.0173Z" fill="#83C5B6"/>
<path d="M54.1325 44.7382C54.6657 43.857 55.278 43.0721 55.9932 42.3776C57.5293 40.886 59.304 39.8128 61.4272 39.3884C62.9081 39.0925 64.3954 39.0699 65.8866 39.3142C67.8766 39.6402 69.5949 40.5134 71.103 41.847C72.2824 42.8899 73.2451 44.0901 73.9275 45.5104C74.4153 46.5256 74.7485 47.5929 74.8334 48.7177C74.8969 49.5584 74.9544 50.41 74.8927 51.2477C74.7549 53.1173 74.1611 54.8462 73.0602 56.3783C72.0122 57.8368 70.7151 59.0227 69.1382 59.8893C67.7951 60.6275 66.3594 61.0543 64.8277 61.1463C64.435 61.1699 64.0419 61.2109 63.6493 61.2079C61.2464 61.1899 59.0796 60.4639 57.1526 59.0187C55.9064 58.084 54.8547 56.9774 54.0791 55.6167C53.4988 54.5987 53.1373 53.5038 52.9247 52.3565C52.7247 51.2778 52.6816 50.1851 52.7706 49.0974C52.8965 47.5589 53.3302 46.1027 54.1325 44.7382ZM65.2302 58.0328C67.4894 57.6554 69.1906 56.4186 70.4267 54.5388C71.676 52.6392 71.9165 50.5297 71.4718 48.3376C71.0405 46.2116 69.841 44.5871 68.0524 43.3988C67.0986 42.7651 66.0417 42.4017 64.8951 42.2663C63.5447 42.1069 62.2364 42.2275 60.9696 42.7174C59.5886 43.2514 58.475 44.1455 57.5777 45.3175C56.9485 46.1392 56.5075 47.0488 56.2571 48.0574C55.9874 49.1437 55.9617 50.2337 56.0923 51.3402C56.279 52.9222 56.8991 54.309 57.9637 55.4784C59.2081 56.8453 60.7155 57.7721 62.5695 58.0703C63.436 58.2097 64.2979 58.2152 65.2302 58.0328Z" fill="#83C5B6"/>
<path d="M128.408 40.8977C129.812 39.9795 131.315 39.4225 132.956 39.2424C134.706 39.0502 136.432 39.1343 138.111 39.711C139.349 40.1359 140.461 40.7844 141.459 41.6303C142.507 42.5174 143.41 43.5289 144.107 44.7168C144.812 45.919 145.248 47.2115 145.43 48.5966C145.557 49.5637 145.556 50.5357 145.473 51.4959C145.343 53.0198 144.878 54.4592 144.066 55.7654C142.894 57.6492 141.323 59.1093 139.339 60.1014C138.11 60.7159 136.801 61.0654 135.425 61.1457C134.965 61.1726 134.502 61.221 134.043 61.2057C132.533 61.1554 131.083 60.8444 129.709 60.1914C128.312 59.5276 127.096 58.6197 126.049 57.4897C124.769 56.1083 123.952 54.482 123.581 52.6322C123.372 51.5853 123.286 50.5251 123.348 49.4624C123.48 47.2252 124.195 45.1998 125.632 43.4567C126.434 42.4844 127.337 41.6206 128.408 40.8977ZM126.669 51.0407C126.724 52.0353 126.992 52.9789 127.443 53.8563C128.205 55.3387 129.351 56.4683 130.81 57.2589C132.156 57.9885 133.595 58.2775 135.134 58.1244C136.137 58.0246 137.084 57.7787 137.98 57.327C138.978 56.8234 139.817 56.1164 140.518 55.2495C141.167 54.4479 141.658 53.5581 141.935 52.5577C142.201 51.5959 142.304 50.6238 142.245 49.6207C142.175 48.4291 141.904 47.3033 141.312 46.2725C139.869 43.7619 137.728 42.3471 134.808 42.2023C133.423 42.1337 132.102 42.3993 130.863 43.0312C129.982 43.4811 129.237 44.1067 128.577 44.8445C127.008 46.5966 126.461 48.6651 126.669 51.0407Z" fill="#83C5B6"/>
<path d="M107.874 61.7014C107.193 61.7014 106.553 61.7014 105.931 61.7014C105.903 61.6709 105.893 61.6612 105.885 61.6509C105.876 61.6409 105.864 61.6315 105.86 61.6197C105.852 61.5938 105.843 61.5666 105.843 61.5399C105.841 54.0557 105.84 46.5715 105.84 39.0872C105.84 39.0062 105.85 38.9252 105.855 38.8477C106.14 38.7581 108.621 38.7281 109.317 38.809C109.36 39.888 109.33 40.9749 109.335 42.0609C109.341 43.1398 109.337 44.2188 109.337 45.2977C109.337 46.3903 109.337 47.4829 109.337 48.5755C109.337 49.6681 109.337 50.7607 109.337 51.8532C109.337 52.9322 109.337 54.0111 109.337 55.09C109.337 56.1808 109.337 57.2715 109.337 58.4055C111.57 58.4055 113.772 58.4055 116.031 58.4055C116.056 59.516 116.036 60.5836 116.044 61.7014C113.303 61.7014 110.609 61.7014 107.874 61.7014Z" fill="#F4A366"/>
<path d="M34.1338 60.6762C34.6573 59.7673 35.1657 58.8847 35.6813 57.9895C35.9711 58.1389 36.2255 58.2662 36.4764 58.4002C36.9519 58.6542 37.4639 58.8291 37.9949 58.8221C39.2193 58.8059 39.9753 58.373 40.3786 57.117C40.6162 56.3774 40.7326 55.6063 40.7363 54.8259C40.7601 49.8048 40.7796 44.7836 40.8002 39.7625C40.8014 39.4513 40.8003 39.14 40.8003 38.8015C41.9609 38.8015 43.0825 38.8015 44.2343 38.8015C44.2417 38.9502 44.254 39.0826 44.254 39.215C44.255 44.375 44.2595 49.5349 44.2511 54.6949C44.2493 55.7725 44.1416 56.8445 43.8177 57.8787C43.2466 59.7025 42.1082 61.0181 40.3062 61.7118C39.7581 61.9228 39.1843 62.0058 38.597 62.0585C37.4926 62.1575 36.4315 61.9895 35.3992 61.6249C34.9291 61.4588 34.4846 61.2202 34.0039 61.0034C34.055 60.8695 34.0868 60.7859 34.1338 60.6762Z" fill="#F4A366"/>
<path d="M72.708 91.8733C71.0124 92.9457 69.2561 93.0767 67.4722 92.2629C65.6892 91.4495 64.6558 90.0006 64.3971 88.0718C64.1718 86.3917 64.6613 84.8846 65.8453 83.6423C66.7429 82.7005 67.8422 82.1521 69.1419 82.0239C71.2642 81.8146 72.928 82.6084 74.1806 84.3217C75.4514 86.0599 75.4151 88.827 74.0869 90.5724C73.7064 91.0723 73.2667 91.5165 72.708 91.8733Z" fill="#82C5B6"/>
</g>
<defs>
<clipPath id="clip0_2329_399">
<rect width="196" height="99" fill="white"/>
</clipPath>
</defs>
</svg>
