<svg width="269" height="45" viewBox="0 0 269 45" fill="none" xmlns="http://www.w3.org/2000/svg">
<path d="M20 28L18.6063 45L0 31.6022L20 28Z" fill="white"/>
<path d="M64 0L61.9909 20.4775L60.8524 32.1699L20 45L21.4064 27.9986L22.7458 10.934L64 0Z" fill="white"/>
<path d="M82.29 13.99V22.24L88.65 13.99H95.07L87.12 23.47L95.79 34H89.07L82.29 25.33V34H77.1V13.99H82.29ZM104.073 24.22C103.293 24.22 102.453 24.58 101.913 25.09C101.313 25.66 100.983 26.5 100.983 27.28C100.983 28.09 101.373 28.87 101.913 29.41C102.483 29.98 103.263 30.31 104.073 30.31C104.853 30.31 105.633 29.98 106.203 29.41C106.803 28.84 107.133 28.06 107.133 27.28C107.133 26.56 106.803 25.69 106.203 25.09C105.663 24.58 104.823 24.22 104.073 24.22ZM112.113 27.28C112.113 29.08 111.513 30.79 110.043 32.23C108.273 33.97 106.203 34.45 104.043 34.45C102.093 34.45 99.9326 34.06 98.0726 32.23C96.6026 30.79 96.0026 29.08 96.0026 27.28C96.0026 24.88 97.0826 23.32 98.0726 22.36C99.1826 21.28 101.133 20.14 104.043 20.14C107.013 20.14 108.933 21.31 110.043 22.36C111.033 23.32 112.113 24.88 112.113 27.28ZM130.062 12.13V34H125.262V32.53C123.912 34.27 122.142 34.45 121.212 34.45C119.292 34.45 117.762 33.82 116.502 32.59C115.152 31.27 114.342 29.38 114.342 27.25C114.342 24.97 115.302 23.11 116.532 21.94C117.852 20.68 119.622 20.14 121.272 20.14C123.102 20.14 124.392 20.95 125.262 21.88V12.13H130.062ZM122.322 30.37C123.102 30.37 123.882 30.01 124.392 29.56C125.022 28.99 125.412 28.09 125.412 27.28C125.412 26.53 124.992 25.63 124.512 25.12C123.972 24.55 123.222 24.22 122.322 24.22C121.302 24.22 120.612 24.67 120.192 25.09C119.652 25.63 119.262 26.47 119.262 27.37C119.262 28.06 119.562 28.84 120.192 29.47C120.852 30.13 121.632 30.37 122.322 30.37ZM147.589 27.67V28.18H137.599C137.599 28.9 137.869 29.86 138.439 30.43C138.739 30.73 139.339 31.09 140.419 31.09C140.539 31.09 141.379 31.06 141.979 30.73C142.279 30.55 142.609 30.25 142.819 29.83H147.409C147.199 30.58 146.779 31.63 145.789 32.59C144.799 33.55 143.239 34.45 140.329 34.45C138.559 34.45 136.429 34.06 134.779 32.41C133.909 31.54 132.799 29.89 132.799 27.34C132.799 25.09 133.639 23.29 134.809 22.15C135.919 21.07 137.659 20.2 140.299 20.2C141.859 20.2 143.869 20.53 145.459 22.03C147.349 23.83 147.589 26.17 147.589 27.67ZM137.749 25.42H143.179C143.059 24.91 142.759 24.34 142.399 23.98C141.769 23.35 140.899 23.26 140.419 23.26C139.609 23.26 138.979 23.47 138.469 23.98C138.139 24.34 137.839 24.82 137.749 25.42ZM150.361 34V12.13H155.161V22.27C155.521 21.82 156.091 21.28 156.661 20.95C157.591 20.41 158.581 20.29 159.421 20.29C161.311 20.29 162.571 20.92 163.381 21.73C164.581 22.93 164.641 24.19 164.641 25.48V34H159.841V27.22C159.841 26.23 159.781 25.21 159.241 24.61C158.791 24.1 158.191 24.04 157.711 24.04C157.201 24.04 156.511 24.13 155.971 24.61C155.551 25 155.161 25.72 155.161 26.8V34H150.361ZM174.854 24.22C174.074 24.22 173.234 24.58 172.694 25.09C172.094 25.66 171.764 26.5 171.764 27.28C171.764 28.09 172.154 28.87 172.694 29.41C173.264 29.98 174.044 30.31 174.854 30.31C175.634 30.31 176.414 29.98 176.984 29.41C177.584 28.84 177.914 28.06 177.914 27.28C177.914 26.56 177.584 25.69 176.984 25.09C176.444 24.58 175.604 24.22 174.854 24.22ZM182.894 27.28C182.894 29.08 182.294 30.79 180.824 32.23C179.054 33.97 176.984 34.45 174.824 34.45C172.874 34.45 170.714 34.06 168.854 32.23C167.384 30.79 166.784 29.08 166.784 27.28C166.784 24.88 167.864 23.32 168.854 22.36C169.964 21.28 171.914 20.14 174.824 20.14C177.794 20.14 179.714 21.31 180.824 22.36C181.814 23.32 182.894 24.88 182.894 27.28ZM200.844 12.13V34H196.044V32.53C194.694 34.27 192.924 34.45 191.994 34.45C190.074 34.45 188.544 33.82 187.284 32.59C185.934 31.27 185.124 29.38 185.124 27.25C185.124 24.97 186.084 23.11 187.314 21.94C188.634 20.68 190.404 20.14 192.054 20.14C193.884 20.14 195.174 20.95 196.044 21.88V12.13H200.844ZM193.104 30.37C193.884 30.37 194.664 30.01 195.174 29.56C195.804 28.99 196.194 28.09 196.194 27.28C196.194 26.53 195.774 25.63 195.294 25.12C194.754 24.55 194.004 24.22 193.104 24.22C192.084 24.22 191.394 24.67 190.974 25.09C190.434 25.63 190.044 26.47 190.044 27.37C190.044 28.06 190.344 28.84 190.974 29.47C191.634 30.13 192.414 30.37 193.104 30.37ZM218.37 27.67V28.18H208.38C208.38 28.9 208.65 29.86 209.22 30.43C209.52 30.73 210.12 31.09 211.2 31.09C211.32 31.09 212.16 31.06 212.76 30.73C213.06 30.55 213.39 30.25 213.6 29.83H218.19C217.98 30.58 217.56 31.63 216.57 32.59C215.58 33.55 214.02 34.45 211.11 34.45C209.34 34.45 207.21 34.06 205.56 32.41C204.69 31.54 203.58 29.89 203.58 27.34C203.58 25.09 204.42 23.29 205.59 22.15C206.7 21.07 208.44 20.2 211.08 20.2C212.64 20.2 214.65 20.53 216.24 22.03C218.13 23.83 218.37 26.17 218.37 27.67ZM208.53 25.42H213.96C213.84 24.91 213.54 24.34 213.18 23.98C212.55 23.35 211.68 23.26 211.2 23.26C210.39 23.26 209.76 23.47 209.25 23.98C208.92 24.34 208.62 24.82 208.53 25.42Z" fill="white"/>
</svg>
