<svg width="269" height="45" viewBox="0 0 269 45" fill="none" xmlns="http://www.w3.org/2000/svg">
<path d="M20 28L18.6063 45L0 31.6022L20 28Z" fill="#77C4B4"/>
<path d="M64 0L61.9909 20.4775L60.8524 32.1699L20 45L21.4064 27.9986L22.7458 10.934L64 0Z" fill="#F4A366"/>
<path d="M82.29 13.99V22.24L88.65 13.99H95.07L87.12 23.47L95.79 34H89.07L82.29 25.33V34H77.1V13.99H82.29ZM105.186 24.22C104.406 24.22 103.566 24.58 103.026 25.09C102.426 25.66 102.096 26.5 102.096 27.28C102.096 28.09 102.486 28.87 103.026 29.41C103.596 29.98 104.376 30.31 105.186 30.31C105.966 30.31 106.746 29.98 107.316 29.41C107.916 28.84 108.246 28.06 108.246 27.28C108.246 26.56 107.916 25.69 107.316 25.09C106.776 24.58 105.936 24.22 105.186 24.22ZM113.226 27.28C113.226 29.08 112.626 30.79 111.156 32.23C109.386 33.97 107.316 34.45 105.156 34.45C103.206 34.45 101.046 34.06 99.1859 32.23C97.7159 30.79 97.1159 29.08 97.1159 27.28C97.1159 24.88 98.1959 23.32 99.1859 22.36C100.296 21.28 102.246 20.14 105.156 20.14C108.126 20.14 110.046 21.31 111.156 22.36C112.146 23.32 113.226 24.88 113.226 27.28ZM131.176 12.13V34H126.376V32.53C125.026 34.27 123.256 34.45 122.326 34.45C120.406 34.45 118.876 33.82 117.616 32.59C116.266 31.27 115.456 29.38 115.456 27.25C115.456 24.97 116.416 23.11 117.646 21.94C118.966 20.68 120.736 20.14 122.386 20.14C124.216 20.14 125.506 20.95 126.376 21.88V12.13H131.176ZM123.436 30.37C124.216 30.37 124.996 30.01 125.506 29.56C126.136 28.99 126.526 28.09 126.526 27.28C126.526 26.53 126.106 25.63 125.626 25.12C125.086 24.55 124.336 24.22 123.436 24.22C122.416 24.22 121.726 24.67 121.306 25.09C120.766 25.63 120.376 26.47 120.376 27.37C120.376 28.06 120.676 28.84 121.306 29.47C121.966 30.13 122.746 30.37 123.436 30.37ZM148.702 27.67V28.18H138.712C138.712 28.9 138.982 29.86 139.552 30.43C139.852 30.73 140.452 31.09 141.532 31.09C141.652 31.09 142.492 31.06 143.092 30.73C143.392 30.55 143.722 30.25 143.932 29.83H148.522C148.312 30.58 147.892 31.63 146.902 32.59C145.912 33.55 144.352 34.45 141.442 34.45C139.672 34.45 137.542 34.06 135.892 32.41C135.022 31.54 133.912 29.89 133.912 27.34C133.912 25.09 134.752 23.29 135.922 22.15C137.032 21.07 138.772 20.2 141.412 20.2C142.972 20.2 144.982 20.53 146.572 22.03C148.462 23.83 148.702 26.17 148.702 27.67ZM138.862 25.42H144.292C144.172 24.91 143.872 24.34 143.512 23.98C142.882 23.35 142.012 23.26 141.532 23.26C140.722 23.26 140.092 23.47 139.582 23.98C139.252 24.34 138.952 24.82 138.862 25.42ZM151.474 34V12.13H156.274V22.27C156.634 21.82 157.204 21.28 157.774 20.95C158.704 20.41 159.694 20.29 160.534 20.29C162.424 20.29 163.684 20.92 164.494 21.73C165.694 22.93 165.754 24.19 165.754 25.48V34H160.954V27.22C160.954 26.23 160.894 25.21 160.354 24.61C159.904 24.1 159.304 24.04 158.824 24.04C158.314 24.04 157.624 24.13 157.084 24.61C156.664 25 156.274 25.72 156.274 26.8V34H151.474ZM176.553 24.22C175.773 24.22 174.933 24.58 174.393 25.09C173.793 25.66 173.463 26.5 173.463 27.28C173.463 28.09 173.853 28.87 174.393 29.41C174.963 29.98 175.743 30.31 176.553 30.31C177.333 30.31 178.113 29.98 178.683 29.41C179.283 28.84 179.613 28.06 179.613 27.28C179.613 26.56 179.283 25.69 178.683 25.09C178.143 24.58 177.303 24.22 176.553 24.22ZM184.593 27.28C184.593 29.08 183.993 30.79 182.523 32.23C180.753 33.97 178.683 34.45 176.523 34.45C174.573 34.45 172.413 34.06 170.553 32.23C169.083 30.79 168.483 29.08 168.483 27.28C168.483 24.88 169.563 23.32 170.553 22.36C171.663 21.28 173.613 20.14 176.523 20.14C179.493 20.14 181.413 21.31 182.523 22.36C183.513 23.32 184.593 24.88 184.593 27.28ZM202.543 12.13V34H197.743V32.53C196.393 34.27 194.623 34.45 193.693 34.45C191.773 34.45 190.243 33.82 188.983 32.59C187.633 31.27 186.823 29.38 186.823 27.25C186.823 24.97 187.783 23.11 189.013 21.94C190.333 20.68 192.103 20.14 193.753 20.14C195.583 20.14 196.873 20.95 197.743 21.88V12.13H202.543ZM194.803 30.37C195.583 30.37 196.363 30.01 196.873 29.56C197.503 28.99 197.893 28.09 197.893 27.28C197.893 26.53 197.473 25.63 196.993 25.12C196.453 24.55 195.703 24.22 194.803 24.22C193.783 24.22 193.093 24.67 192.673 25.09C192.133 25.63 191.743 26.47 191.743 27.37C191.743 28.06 192.043 28.84 192.673 29.47C193.333 30.13 194.113 30.37 194.803 30.37ZM220.069 27.67V28.18H210.079C210.079 28.9 210.349 29.86 210.919 30.43C211.219 30.73 211.819 31.09 212.899 31.09C213.019 31.09 213.859 31.06 214.459 30.73C214.759 30.55 215.089 30.25 215.299 29.83H219.889C219.679 30.58 219.259 31.63 218.269 32.59C217.279 33.55 215.719 34.45 212.809 34.45C211.039 34.45 208.909 34.06 207.259 32.41C206.389 31.54 205.279 29.89 205.279 27.34C205.279 25.09 206.119 23.29 207.289 22.15C208.399 21.07 210.139 20.2 212.779 20.2C214.339 20.2 216.349 20.53 217.939 22.03C219.829 23.83 220.069 26.17 220.069 27.67ZM210.229 25.42H215.659C215.539 24.91 215.239 24.34 214.879 23.98C214.249 23.35 213.379 23.26 212.899 23.26C212.089 23.26 211.459 23.47 210.949 23.98C210.619 24.34 210.319 24.82 210.229 25.42Z" fill="#77C4B4"/>
</svg>
