<svg width="212" height="89" viewBox="0 0 212 89" fill="none" xmlns="http://www.w3.org/2000/svg">
<g clip-path="url(#clip0_2851_1942)">
<path d="M20.8177 32.3074L23.7375 29.6032C24.1334 29.2365 24.3313 28.8088 24.3313 28.3199C24.3313 27.831 24.1334 27.4032 23.7375 27.0365C23.3416 26.6699 22.8718 26.4865 22.3281 26.4865C21.783 26.4865 21.3126 26.6699 20.9167 27.0365L16.6113 31.024C16.4133 31.2074 16.2734 31.406 16.1916 31.6199C16.1085 31.8338 16.0669 32.0629 16.0669 32.3074C16.0669 32.5518 16.1085 32.781 16.1916 32.9949C16.2734 33.2088 16.4133 33.4074 16.6113 33.5907L20.9167 37.5782C21.3126 37.9449 21.783 38.1282 22.3281 38.1282C22.8718 38.1282 23.3416 37.9449 23.7375 37.5782C24.1334 37.2115 24.3313 36.7838 24.3313 36.2949C24.3313 35.806 24.1334 35.3782 23.7375 35.0115L20.8177 32.3074ZM33.3875 32.3074L30.4678 35.0115C30.0719 35.3782 29.8739 35.806 29.8739 36.2949C29.8739 36.7838 30.0719 37.2115 30.4678 37.5782C30.8637 37.9449 31.3341 38.1282 31.8792 38.1282C32.4229 38.1282 32.8927 37.9449 33.2886 37.5782L37.594 33.5907C37.7919 33.4074 37.9318 33.2088 38.0136 32.9949C38.0968 32.781 38.1383 32.5518 38.1383 32.3074C38.1383 32.0629 38.0968 31.8338 38.0136 31.6199C37.9318 31.406 37.7919 31.2074 37.594 31.024L33.2886 27.0365C33.0906 26.8532 32.8682 26.7157 32.6215 26.624C32.3734 26.5324 32.1259 26.4865 31.8792 26.4865C31.6311 26.4865 31.3836 26.5324 31.1368 26.624C30.8887 26.7157 30.6657 26.8532 30.4678 27.0365C30.0719 27.4032 29.8739 27.831 29.8739 28.3199C29.8739 28.8088 30.0719 29.2365 30.4678 29.6032L33.3875 32.3074ZM13.2461 48.8074C12.1574 48.8074 11.225 48.4487 10.4491 47.7312C9.67443 47.0125 9.28711 46.149 9.28711 45.1407V19.474C9.28711 18.4657 9.67443 17.6022 10.4491 16.8835C11.225 16.1661 12.1574 15.8074 13.2461 15.8074H40.9591C42.0478 15.8074 42.9802 16.1661 43.7562 16.8835C44.5308 17.6022 44.9181 18.4657 44.9181 19.474V45.1407C44.9181 46.149 44.5308 47.0125 43.7562 47.7312C42.9802 48.4487 42.0478 48.8074 40.9591 48.8074H13.2461ZM13.2461 45.1407H40.9591V19.474H13.2461V45.1407Z" fill="white"/>
</g>
<path d="M60.3387 21.6H63.8587V31.04L68.3387 21.6H71.8587L67.6667 29.824L71.9227 44H68.2427L65.2667 34.016L63.8587 36.864V44H60.3387V21.6ZM78.1767 44.32C76.4487 44.32 75.126 43.8293 74.2087 42.848C73.2913 41.8667 72.8327 40.48 72.8327 38.688V26.912C72.8327 25.12 73.2913 23.7333 74.2087 22.752C75.126 21.7707 76.4487 21.28 78.1767 21.28C79.9047 21.28 81.2273 21.7707 82.1447 22.752C83.062 23.7333 83.5207 25.12 83.5207 26.912V38.688C83.5207 40.48 83.062 41.8667 82.1447 42.848C81.2273 43.8293 79.9047 44.32 78.1767 44.32ZM78.1767 41.12C79.3927 41.12 80.0007 40.384 80.0007 38.912V26.688C80.0007 25.216 79.3927 24.48 78.1767 24.48C76.9607 24.48 76.3527 25.216 76.3527 26.688V38.912C76.3527 40.384 76.9607 41.12 78.1767 41.12ZM85.9012 21.6H91.2772C93.0265 21.6 94.3385 22.0693 95.2132 23.008C96.0878 23.9467 96.5252 25.3227 96.5252 27.136V38.464C96.5252 40.2773 96.0878 41.6533 95.2132 42.592C94.3385 43.5307 93.0265 44 91.2772 44H85.9012V21.6ZM91.2132 40.8C91.7892 40.8 92.2265 40.6293 92.5252 40.288C92.8452 39.9467 93.0052 39.392 93.0052 38.624V26.976C93.0052 26.208 92.8452 25.6533 92.5252 25.312C92.2265 24.9707 91.7892 24.8 91.2132 24.8H89.4212V40.8H91.2132ZM98.9012 21.6H108.501V24.8H102.421V30.72H107.253V33.92H102.421V40.8H108.501V44H98.9012V21.6ZM109.598 21.6H113.15L115.454 38.976H115.518L117.822 21.6H121.054L117.662 44H112.99L109.598 21.6ZM122.745 21.6H132.345V24.8H126.265V30.72H131.097V33.92H126.265V40.8H132.345V44H122.745V21.6ZM134.37 21.6H139.586C141.399 21.6 142.722 22.0267 143.554 22.88C144.386 23.712 144.802 25.0027 144.802 26.752V28.128C144.802 30.4533 144.034 31.9253 142.498 32.544V32.608C143.351 32.864 143.949 33.3867 144.29 34.176C144.653 34.9653 144.834 36.0213 144.834 37.344V41.28C144.834 41.92 144.855 42.4427 144.898 42.848C144.941 43.232 145.047 43.616 145.218 44H141.634C141.506 43.6373 141.421 43.296 141.378 42.976C141.335 42.656 141.314 42.08 141.314 41.248V37.152C141.314 36.128 141.143 35.4133 140.802 35.008C140.482 34.6027 139.917 34.4 139.106 34.4H137.89V44H134.37V21.6ZM139.17 31.2C139.874 31.2 140.397 31.0187 140.738 30.656C141.101 30.2933 141.282 29.6853 141.282 28.832V27.104C141.282 26.2933 141.133 25.7067 140.834 25.344C140.557 24.9813 140.109 24.8 139.49 24.8H137.89V31.2H139.17ZM147.276 21.6H150.796V31.04L155.276 21.6H158.796L154.604 29.824L158.86 44H155.18L152.204 34.016L150.796 36.864V44H147.276V21.6ZM160.526 21.6H170.126V24.8H164.046V30.72H168.878V33.92H164.046V40.8H170.126V44H160.526V21.6ZM174.903 24.8H171.223V21.6H182.103V24.8H178.423V44H174.903V24.8Z" fill="white"/>
<path d="M59.0267 46.56H182.487V49.12H59.0267V46.56Z" fill="white"/>
<a href="https://www.kodeverketbergen.no/">
<rect fill="black" fill-opacity="0" x="29.3792" y="15.3" width="123.461" height="38.4"/>
</a>
<defs>
<clipPath id="clip0_2851_1942">
<rect width="74.1935" height="71.2837" fill="white" transform="translate(0.125 17)"/>
</clipPath>
</defs>
</svg>
