<svg width="126" height="64" viewBox="0 0 126 64" fill="none" xmlns="http://www.w3.org/2000/svg">
<g clip-path="url(#clip0_2851_1975)">
<path d="M34.988 64.0529C34.9249 64.0373 34.887 64.0101 34.8478 64.0079C34.473 63.9863 34.0961 63.9862 33.7232 63.9468C32.9341 63.8635 32.1449 63.776 31.3599 63.6606C30.6167 63.5514 29.8835 63.383 29.1673 63.1502C28.255 62.8536 27.377 62.4869 26.6433 61.8409C26.1332 61.3917 25.7842 60.8454 25.6796 60.1604C25.6607 60.0363 25.6133 59.9011 25.733 59.7651C25.9535 59.8624 26.1741 59.9616 26.3961 60.0575C27.1687 60.3911 27.965 60.6538 28.7748 60.8795C29.6428 61.1214 30.5234 61.3039 31.4119 61.4424C31.9543 61.5269 32.5043 61.5615 33.0505 61.6224C33.816 61.7079 34.5844 61.7334 35.3533 61.7241C35.9562 61.7168 36.5605 61.7058 37.1612 61.6581C38.8079 61.5272 40.4359 61.2702 42.0371 60.8555C42.2335 60.8047 42.4046 60.8202 42.5941 60.9014C43.1838 61.1541 43.7969 61.3079 44.4416 61.3634C45.2279 61.431 45.9693 61.2971 46.6877 60.9892C47.2852 60.7331 47.7944 60.3476 48.2314 59.8706C48.4096 59.6761 48.6084 59.5422 48.8506 59.4485C50.7687 58.7067 52.6905 57.9762 54.6358 57.3083C56.4567 56.6831 58.2875 56.0939 60.1624 55.6557C61.0559 55.4469 61.9563 55.2599 62.8828 55.3087C63.0812 55.3192 63.2792 55.3622 63.4735 55.4073C63.5286 55.4201 63.6026 55.4898 63.6077 55.5398C63.6125 55.5862 63.5477 55.6601 63.4956 55.6893C63.052 55.9376 62.6088 56.1871 62.1571 56.4199C61.0192 57.0064 59.8856 57.6023 58.7341 58.1607C57.5364 58.7414 56.3218 59.2868 55.1111 59.8398C53.629 60.5166 52.1166 61.1194 50.5896 61.6848C48.7996 62.3475 46.9823 62.9232 45.121 63.346C44.3297 63.5258 43.5306 63.6731 42.7202 63.7436C42.1382 63.7942 41.5569 63.855 40.9743 63.8978C40.3131 63.9465 39.6507 63.9801 38.974 64.0366C37.6437 64.0529 36.3282 64.0529 34.988 64.0529Z" fill="white"/>
<path d="M126.078 29.9619C126.064 30.0349 126.039 30.0825 126.036 30.1314C125.969 31.2036 125.498 32.0711 124.701 32.7633C124.027 33.349 123.225 33.6533 122.356 33.8082C121.748 33.9165 121.137 33.8993 120.525 33.901C120.395 33.9013 120.264 33.901 120.097 33.901C120.095 34.249 120.092 34.5809 120.091 34.9128C120.09 35.2394 120.091 35.566 120.091 35.8927C120.091 36.2281 120.091 36.5636 120.091 36.8991C120.091 37.2257 120.091 37.5523 120.091 37.879C120.091 38.2144 120.091 38.5499 120.091 38.8853C120.091 39.2105 120.091 39.5357 120.091 39.8881C119.338 39.9146 118.607 39.8928 117.881 39.9014C117.819 39.7012 117.794 25.6338 117.852 25.1299C117.913 25.1224 117.979 25.107 118.045 25.1072C119.158 25.1099 120.271 25.0944 121.382 25.1268C121.99 25.1446 122.601 25.2017 123.194 25.3737C124.221 25.6721 124.982 26.3114 125.524 27.2262C125.838 27.756 126.026 28.3284 126.063 28.9652C126.078 29.2991 126.078 29.6181 126.078 29.9619ZM123.532 28.1331C123.179 27.6964 122.707 27.4637 122.175 27.3367C121.514 27.1789 120.842 27.1679 120.169 27.1935C120.146 27.1943 120.125 27.2171 120.106 27.228C120.057 27.7997 120.079 31.5829 120.137 31.7943C120.464 31.7943 120.796 31.7885 121.128 31.7958C121.534 31.8046 121.929 31.745 122.319 31.6359C123.201 31.3887 123.774 30.844 123.902 29.9063C123.986 29.2918 123.941 28.6895 123.532 28.1331Z" fill="white"/>
<path d="M0.0527344 47.389C0.088749 47.2681 0.133261 47.1742 0.159504 47.0754C0.549822 45.606 1.47688 44.6876 2.96129 44.4113C4.76804 44.075 6.52068 45.251 6.91962 47.0855C7.30833 48.873 6.3385 50.5853 4.66445 51.144C3.39126 51.569 2.21779 51.3267 1.20099 50.4133C0.660271 49.9276 0.329223 49.3226 0.162342 48.6188C0.140126 48.5251 0.110449 48.4332 0.068481 48.3291C0.0527348 48.0165 0.0527348 47.7152 0.0527344 47.389Z" fill="white"/>
<path d="M18.062 0.0529785C18.1948 0.0753844 18.3042 0.0941706 18.4116 0.120744C19.8036 0.46495 20.7389 1.30298 21.0941 2.71949C21.5677 4.60808 20.4275 6.57353 18.4044 6.97738C16.8887 7.27995 15.4264 6.57594 14.673 5.18552C14.4236 4.72507 14.2982 4.22474 14.2915 3.69197C14.2849 3.16546 14.3407 2.65678 14.5565 2.17143C14.9424 1.30374 15.5586 0.669279 16.44 0.323682C16.7374 0.20709 17.062 0.161149 17.3885 0.0679484C17.6144 0.0529784 17.826 0.0529784 18.062 0.0529785Z" fill="white"/>
<path d="M22.18 59.0264C21.5722 59.0441 21.0355 58.8514 20.5055 58.643C19.3667 58.1953 18.3195 57.5706 17.2885 56.9182C15.3146 55.669 13.4358 54.2841 11.6065 52.8311C10.4391 51.9038 9.2907 50.9522 8.13472 50.0103C7.93159 49.8448 7.92364 49.8247 8.01964 49.5619C8.22617 48.9964 8.36875 48.4141 8.40117 47.8143C8.45632 46.7944 8.18134 45.8614 7.59316 45.0267C7.10737 44.3372 6.47959 43.808 5.73739 43.4245C5.50993 43.3069 5.42964 43.1618 5.41037 42.9145C5.36126 42.2839 5.27839 41.6561 5.21574 41.0265C5.18527 40.7203 5.16665 40.4127 5.14823 40.1054C5.11035 39.4733 5.07404 38.841 5.0413 38.2086C5.01993 37.7955 5.00594 37.3822 4.98871 36.9689C4.97553 36.6526 4.95362 36.3364 4.95218 36.02C4.95106 35.7744 4.9819 35.5288 4.98727 35.283C4.9965 34.8596 4.98093 34.435 5.00502 34.0126C5.03753 33.4427 5.07912 32.8721 5.15082 32.3061C5.23693 31.6264 5.3399 30.9476 5.47001 30.2752C5.62952 29.4508 5.89018 28.6555 6.27712 27.908C6.56766 27.3467 6.92746 26.8373 7.46116 26.4834C7.63396 26.3689 7.833 26.291 8.02685 26.2136C8.11871 26.177 8.22658 26.1811 8.31816 26.168C8.41004 26.3107 8.36327 26.4325 8.33962 26.5499C8.15902 27.4463 7.95898 28.3391 7.79845 29.2391C7.69208 29.8354 7.64289 30.442 7.56472 31.0436C7.38244 32.4464 7.39238 33.8568 7.41182 35.2663C7.4231 36.084 7.51113 36.8973 7.61052 37.7099C7.74755 38.8302 7.96232 39.9332 8.24254 41.0249C8.61362 42.4705 9.1133 43.8689 9.72871 45.2274C10.701 47.3739 11.9382 49.3515 13.4187 51.1775C13.9892 51.8812 14.5928 52.5532 15.2211 53.2054C16.8306 54.8759 18.6044 56.3436 20.5415 57.6092C21.1283 57.9925 21.7441 58.3305 22.3458 58.6907C22.4377 58.7458 22.5917 58.7672 22.553 58.9192C22.5202 59.048 22.3847 59.0169 22.2833 59.0259C22.2572 59.0283 22.2308 59.0264 22.18 59.0264Z" fill="white"/>
<path d="M16.1083 9.08051C16.2646 8.90076 16.4133 8.73909 16.5533 8.5701C16.6525 8.45039 16.7595 8.41869 16.9188 8.43895C18.1493 8.59541 19.3219 8.43859 20.3856 7.74404C21.2577 7.17469 21.815 6.3591 22.178 5.39597C22.2647 5.1659 22.33 4.92744 22.4007 4.69148C22.4648 4.47743 22.475 4.46458 22.6821 4.4488C23.4041 4.3938 24.1261 4.33698 24.8484 4.28554C25.3967 4.24649 25.9452 4.2089 26.4942 4.18083C27.2878 4.14024 28.0826 4.119 28.8758 4.07137C30.4595 3.97627 32.0443 4.01343 33.628 4.04085C34.437 4.05486 35.2444 4.16527 36.0526 4.23003C36.8303 4.29232 37.5917 4.4412 38.3389 4.664C38.7182 4.77709 39.0813 4.92813 39.4002 5.17133C39.4419 5.20318 39.4882 5.23066 39.5243 5.26801C39.5828 5.3283 39.6807 5.38235 39.6283 5.48605C39.5755 5.59022 39.4819 5.53456 39.3959 5.52689C38.8657 5.4796 38.3355 5.42714 37.804 5.40186C37.1405 5.37031 36.4758 5.34887 35.8116 5.35007C35.2176 5.35114 34.6219 5.36676 34.03 5.41461C32.2887 5.55541 30.5631 5.80187 28.8631 6.22095C27.1774 6.63649 25.5396 7.18635 23.9538 7.89864C21.8634 8.83758 19.9274 10.0293 18.1487 11.478C17.2015 12.2494 16.3135 13.0887 15.4908 13.9933C14.0017 15.6306 12.7185 17.42 11.632 19.3539C10.82 20.7993 10.1273 22.3001 9.52246 23.8436C9.50642 23.8845 9.49326 23.9267 9.47508 23.9666C9.4268 24.0727 9.34048 24.0835 9.25962 24.0239C9.18347 23.9678 9.11749 23.8924 9.06109 23.8151C8.75435 23.3947 8.64452 22.9096 8.61792 22.3996C8.56743 21.4313 8.77352 20.5066 9.11758 19.6125C9.34492 19.0216 9.5825 18.4318 9.86294 17.8653C10.5125 16.5531 11.2864 15.3134 12.1401 14.1271C12.7971 13.2142 13.4677 12.3101 14.1623 11.426C14.7589 10.6666 15.398 9.94128 16.018 9.2006C16.0461 9.16704 16.0708 9.13056 16.1083 9.08051Z" fill="white"/>
<path d="M58.6787 25.4211C59.7589 25.8339 60.4207 26.6243 60.8322 27.6632C61.026 28.1526 61.132 28.6636 61.1324 29.1817C61.133 30.0221 60.8987 30.7988 60.3526 31.4574C60.2357 31.5984 60.1135 31.735 59.9787 31.8909C60.0593 31.9302 60.126 31.9652 60.1945 31.9959C61.3092 32.4949 62.0083 33.3543 62.3096 34.5331C62.5811 35.5954 62.4948 36.6345 61.9598 37.6037C61.4574 38.5139 60.72 39.1776 59.7427 39.5298C59.3687 39.6645 58.9642 39.7283 58.568 39.7807C58.1795 39.832 57.784 39.8387 57.3913 39.8455C56.2626 39.8649 55.1337 39.8745 54.0049 39.8877C53.9273 39.8886 53.8496 39.8878 53.7779 39.8878C53.7172 39.6855 53.6932 25.5569 53.7499 25.0825C53.8208 25.0772 53.8964 25.0666 53.972 25.0665C54.8132 25.0653 55.6551 25.0431 56.4952 25.0726C57.2268 25.0984 57.9612 25.1522 58.6787 25.4211ZM59.6829 36.9625C60.1355 36.4736 60.301 35.8968 60.2081 35.2383C60.1071 34.5223 59.7309 34.0032 59.1016 33.6683C58.676 33.4419 58.2095 33.3578 57.7376 33.3355C57.1961 33.3099 56.6528 33.3218 56.1103 33.3199C56.0617 33.3197 56.0129 33.3374 55.9694 33.3458C55.9159 33.8148 55.9375 37.5294 55.9939 37.715C56.6571 37.715 57.3237 37.7491 57.9852 37.7052C58.6119 37.6636 59.2043 37.4717 59.6829 36.9625ZM58.2032 27.5189C58.087 27.4588 57.9732 27.3932 57.8541 27.3396C57.5212 27.1897 57.1625 27.1592 56.8062 27.1358C56.5303 27.1177 56.2522 27.1322 55.9654 27.1322C55.9654 28.5722 55.9654 29.9779 55.9654 31.401C56.566 31.4204 57.149 31.4461 57.7173 31.2654C58.2997 31.0801 58.6947 30.7033 58.8783 30.1084C58.9944 29.732 59.0195 29.3482 58.9856 28.9591C58.9351 28.3799 58.7189 27.8876 58.2032 27.5189Z" fill="white"/>
<path d="M111.074 28.2077C111.597 28.9163 111.993 29.6707 112.195 30.5125C112.299 30.9463 112.35 31.3938 112.411 31.8372C112.442 32.0628 112.459 32.2931 112.454 32.5206C112.411 34.2549 111.882 35.797 110.704 37.0977C109.973 37.9049 109.136 38.5522 108.141 38.9837C107.561 39.235 106.957 39.4124 106.325 39.4754C105.969 39.5108 105.612 39.5753 105.258 39.5633C104.48 39.5369 103.709 39.4521 102.966 39.1871C101.926 38.816 101.023 38.2348 100.23 37.4628C99.6837 36.9301 99.2182 36.3401 98.8834 35.6524C98.4784 34.8204 98.2459 33.9409 98.207 33.0119C98.1978 32.7926 98.1656 32.5735 98.1681 32.3547C98.1862 30.7921 98.6174 29.3707 99.5984 28.1383C100.274 27.2902 101.067 26.5789 102.023 26.0706C102.867 25.6213 103.774 25.3893 104.73 25.3119C105.649 25.2376 106.542 25.3249 107.423 25.5826C108.231 25.8191 108.962 26.2072 109.621 26.7339C110.157 27.1634 110.632 27.6562 111.074 28.2077ZM106.218 37.5061C106.413 37.4594 106.611 37.4223 106.803 37.3642C107.59 37.1257 108.259 36.6973 108.841 36.1116C109.416 35.5329 109.85 34.8705 110.089 34.0897C110.304 33.3877 110.401 32.6722 110.321 31.9299C110.275 31.5155 110.211 31.1092 110.084 30.7161C109.76 29.7035 109.15 28.8909 108.318 28.2447C107.877 27.9026 107.383 27.6634 106.855 27.4875C106.203 27.2701 105.53 27.2389 104.858 27.2879C103.521 27.3852 102.425 27.9756 101.533 28.983C100.642 29.9891 100.268 31.1729 100.271 32.4983C100.271 32.6556 100.301 32.8126 100.31 32.9701C100.346 33.5669 100.502 34.1334 100.753 34.6711C101.211 35.6513 101.939 36.3853 102.855 36.9328C103.473 37.3018 104.143 37.5358 104.864 37.561C105.299 37.5762 105.736 37.5305 106.218 37.5061Z" fill="white"/>
<path d="M34.7993 28.9217C35.1421 28.3521 35.5357 27.8446 35.9955 27.3957C36.983 26.4314 38.1239 25.7376 39.4888 25.4633C40.4408 25.2719 41.3969 25.2573 42.3555 25.4153C43.6348 25.626 44.7395 26.1905 45.709 27.0526C46.4671 27.7268 47.086 28.5027 47.5247 29.4209C47.8382 30.0772 48.0525 30.7672 48.1071 31.4943C48.1479 32.0378 48.1848 32.5883 48.1452 33.1299C48.0566 34.3385 47.6749 35.4562 46.9672 36.4466C46.2934 37.3895 45.4596 38.1561 44.4458 38.7164C43.5824 39.1936 42.6595 39.4695 41.6748 39.529C41.4224 39.5442 41.1697 39.5707 40.9173 39.5688C39.3725 39.5571 37.9796 39.0878 36.7408 38.1535C35.9397 37.5493 35.2636 36.8339 34.765 35.9543C34.3919 35.2962 34.1596 34.5883 34.0229 33.8467C33.8943 33.1493 33.8666 32.4429 33.9238 31.7397C34.0048 30.7452 34.2835 29.8038 34.7993 28.9217ZM41.9336 37.5162C43.3859 37.2722 44.4795 36.4727 45.2742 35.2575C46.0773 34.0294 46.2319 32.6657 45.946 31.2486C45.6688 29.8742 44.8976 28.824 43.7478 28.0558C43.1347 27.6462 42.4552 27.4112 41.7181 27.3237C40.85 27.2207 40.009 27.2986 39.1946 27.6153C38.3068 27.9605 37.591 28.5385 37.0141 29.2962C36.6096 29.8274 36.3261 30.4154 36.1651 31.0675C35.9918 31.7697 35.9752 32.4744 36.0592 33.1897C36.1792 34.2124 36.5778 35.1089 37.2623 35.8649C38.0622 36.7485 39.0312 37.3476 40.2231 37.5404C40.7802 37.6306 41.3342 37.6341 41.9336 37.5162Z" fill="white"/>
<path d="M82.5478 26.4389C83.4505 25.8453 84.4168 25.4853 85.4714 25.3688C86.5967 25.2446 87.706 25.299 88.7857 25.6717C89.5812 25.9464 90.296 26.3657 90.938 26.9125C91.6112 27.486 92.1918 28.1399 92.6399 28.9079C93.0933 29.685 93.3736 30.5205 93.4907 31.416C93.5725 32.0412 93.5714 32.6695 93.5185 33.2903C93.4347 34.2754 93.1356 35.206 92.6135 36.0504C91.8605 37.2682 90.8506 38.2121 89.575 38.8534C88.7848 39.2507 87.9431 39.4766 87.0589 39.5285C86.7628 39.5459 86.4657 39.5772 86.1702 39.5673C85.1998 39.5348 84.2675 39.3337 83.384 38.9116C82.4859 38.4825 81.7046 37.8956 81.0315 37.1651C80.2087 36.2721 79.6833 35.2207 79.445 34.0248C79.3102 33.3481 79.2549 32.6627 79.295 31.9757C79.3796 30.5295 79.8393 29.2201 80.7634 28.0933C81.2788 27.4647 81.8594 26.9063 82.5478 26.4389ZM81.4297 32.996C81.465 33.639 81.6375 34.249 81.9274 34.8162C82.4172 35.7745 83.154 36.5048 84.0918 37.0159C84.9571 37.4875 85.8826 37.6744 86.8718 37.5754C87.5165 37.5108 88.1254 37.3519 88.7011 37.0599C89.3431 36.7343 89.8822 36.2772 90.3331 35.7168C90.7501 35.1986 91.0655 34.6234 91.2437 33.9767C91.4151 33.3549 91.4808 32.7265 91.4429 32.078C91.398 31.3077 91.2238 30.5799 90.8431 29.9136C89.9158 28.2905 88.5394 27.3759 86.6619 27.2823C85.7719 27.2379 84.9223 27.4097 84.1264 27.8182C83.5598 28.109 83.081 28.5134 82.6564 28.9904C81.648 30.1231 81.2963 31.4603 81.4297 32.996Z" fill="white"/>
<path d="M69.3487 39.8877C68.9111 39.8877 68.4997 39.8877 68.0998 39.8877C68.0816 39.868 68.0755 39.8617 68.0698 39.8551C68.0641 39.8486 68.0564 39.8425 68.054 39.8349C68.0488 39.8182 68.0432 39.8006 68.0432 39.7833C68.042 34.945 68.0413 30.1067 68.041 25.2685C68.041 25.2161 68.0473 25.1637 68.0505 25.1136C68.2339 25.0557 69.8288 25.0363 70.2764 25.0886C70.3039 25.7861 70.2845 26.4888 70.2881 27.1908C70.2917 27.8883 70.2889 28.5858 70.2889 29.2833C70.2889 29.9896 70.2889 30.6959 70.2889 31.4023C70.2889 32.1086 70.2889 32.8149 70.2889 33.5212C70.2889 34.2187 70.2889 34.9162 70.2889 35.6137C70.2889 36.3188 70.2889 37.0239 70.2889 37.757C71.7248 37.757 73.1401 37.757 74.5926 37.757C74.6084 38.4749 74.5959 39.1651 74.601 39.8877C72.8389 39.8877 71.107 39.8877 69.3487 39.8877Z" fill="white"/>
<path d="M21.9438 39.225C22.2804 38.6375 22.6072 38.0669 22.9387 37.4882C23.125 37.5848 23.2885 37.6671 23.4498 37.7537C23.7555 37.9179 24.0846 38.031 24.426 38.0265C25.2131 38.016 25.6991 37.7361 25.9584 36.9242C26.1111 36.446 26.1859 35.9476 26.1883 35.4431C26.2036 32.1971 26.2161 28.9511 26.2294 25.7051C26.2302 25.5039 26.2295 25.3027 26.2295 25.0839C26.9755 25.0839 27.6966 25.0839 28.4371 25.0839C28.4418 25.18 28.4497 25.2656 28.4497 25.3512C28.4503 28.6869 28.4532 32.0226 28.4478 35.3584C28.4467 36.055 28.3774 36.748 28.1692 37.4166C27.8021 38.5956 27.0703 39.4461 25.9118 39.8945C25.5595 40.0309 25.1906 40.0846 24.813 40.1187C24.1031 40.1827 23.421 40.0741 22.7573 39.8383C22.4551 39.731 22.1694 39.5767 21.8604 39.4366C21.8932 39.35 21.9137 39.296 21.9438 39.225Z" fill="white"/>
<path d="M46.7403 59.3929C45.6503 60.0862 44.5212 60.1708 43.3744 59.6447C42.2282 59.1189 41.5639 58.1822 41.3976 56.9354C41.2527 55.8492 41.5674 54.8749 42.3286 54.0719C42.9056 53.463 43.6123 53.1085 44.4478 53.0256C45.8122 52.8903 46.8817 53.4035 47.687 54.5111C48.5039 55.6347 48.4806 57.4235 47.6267 58.5519C47.3821 58.8751 47.0995 59.1622 46.7403 59.3929Z" fill="white"/>
</g>
<defs>
<clipPath id="clip0_2851_1975">
<rect width="126" height="64" fill="white"/>
</clipPath>
</defs>
</svg>
